<svg xmlns="http://www.w3.org/2000/svg" viewBox="0 0 48 54" fill="none">
  <!-- Network lines -->
  <g stroke="#34d399" stroke-linecap="round">
    <line x1="20" y1="6"  x2="15" y2="14" stroke-width="1.1" opacity=".55"/>
    <line x1="15" y1="14" x2="10" y2="24" stroke-width="1.1" opacity=".5"/>
    <line x1="10" y1="24" x2="7"  y2="33" stroke-width="1.1" opacity=".45"/>
    <line x1="7"  y1="33" x2="4"  y2="43" stroke-width="1.1" opacity=".4"/>
    <line x1="20" y1="6"  x2="17" y2="12" stroke-width="1"   opacity=".4"/>
    <line x1="17" y1="12" x2="12" y2="20" stroke-width="1"   opacity=".35"/>
    <line x1="12" y1="20" x2="9"  y2="29" stroke-width="1"   opacity=".3"/>
    <line x1="15" y1="14" x2="17" y2="12" stroke-width=".9"  opacity=".32"/>
    <line x1="10" y1="24" x2="12" y2="20" stroke-width=".9"  opacity=".28"/>
    <line x1="20" y1="6"  x2="23" y2="3"  stroke-width="1"   opacity=".42"/>
    <line x1="20" y1="6"  x2="14" y2="4"  stroke-width="1"   opacity=".36"/>
    <line x1="14" y1="4"  x2="9"  y2="9"  stroke-width=".9"  opacity=".3"/>
    <line x1="7"  y1="33" x2="9"  y2="29" stroke-width=".9"  opacity=".28"/>
  </g>
  <!-- Particle dots -->
  <g fill="#34d399">
    <circle cx="20" cy="6"  r="3"   opacity=".95"/>
    <circle cx="23" cy="3"  r="2.2" opacity=".78"/>
    <circle cx="15" cy="14" r="2.5" opacity=".82"/>
    <circle cx="14" cy="4"  r="1.8" opacity=".62"/>
    <circle cx="9"  cy="9"  r="1.5" opacity=".5"/>
    <circle cx="17" cy="12" r="2"   opacity=".65"/>
    <circle cx="10" cy="24" r="2.3" opacity=".75"/>
    <circle cx="12" cy="20" r="2"   opacity=".6"/>
    <circle cx="7"  cy="33" r="2.2" opacity=".65"/>
    <circle cx="9"  cy="29" r="1.8" opacity=".5"/>
    <circle cx="4"  cy="43" r="2"   opacity=".55"/>
    <circle cx="6"  cy="17" r="1.5" opacity=".42"/>
    <circle cx="3"  cy="38" r="1.4" opacity=".38"/>
  </g>
  <!-- Solid right leg -->
  <path d="M24 6 L45 50 L33 50 L20 24 Z" fill="#064e3b"/>
  <!-- Lighter face for depth -->
  <path d="M24 6 L28 8 L45 50 L41 50 Z" fill="#10b981" opacity=".3"/>
</svg>
